<svg height="96" width="96" xmlns="http://www.w3.org/2000/svg" xmlns:xlink="http://www.w3.org/1999/xlink"><linearGradient id="a"><stop offset="0" stop-color="#fff"/><stop offset="1" stop-color="#fff" stop-opacity="0"/></linearGradient><linearGradient id="b" gradientUnits="userSpaceOnUse" x1="36.357143" x2="36.357143" xlink:href="#a" y1="6" y2="63.893143"/><filter id="c" color-interpolation-filters="sRGB" height="1.384" width="1.384" x="-.192" y="-.192"><feGaussianBlur stdDeviation="5.28"/></filter><linearGradient id="d" gradientUnits="userSpaceOnUse" x1="48" x2="48" xlink:href="#a" y1="20.220806" y2="138.66119"/><radialGradient id="e" cx="48" cy="90.171875" gradientTransform="matrix(1.1573129 0 0 .99590774 -7.551021 .197132)" gradientUnits="userSpaceOnUse" r="42" xlink:href="#a"/><clipPath id="f"><rect height="84" rx="6" width="84" x="6" y="6"/></clipPath><linearGradient id="g" gradientUnits="userSpaceOnUse" x1="48" x2="48" y1="90" y2="5.987717"><stop offset="0" stop-color="#65a31b"/><stop offset="1" stop-color="#a0de42"/></linearGradient><linearGradient id="h" gradientUnits="userSpaceOnUse" x1="-53.328354" x2="-53.328354" y1="62.677669" y2="27.066261"><stop offset="0" stop-color="#dcdcdc"/><stop offset="1" stop-color="#f0f0f0"/></linearGradient><linearGradient id="i" gradientUnits="userSpaceOnUse" x1="48.082497" x2="46.654823" y1="76.561722" y2="17.972879"><stop offset="0" stop-color="#dcdcdc"/><stop offset=".30654153" stop-color="#ebebeb"/><stop offset=".70706075" stop-color="#fff"/><stop offset=".84501493" stop-color="#fafafa"/><stop offset="1" stop-color="#f0f0f0"/></linearGradient><linearGradient id="j" gradientUnits="userSpaceOnUse" x1="15" x2="81" xlink:href="#a" y1="48.272732" y2="48.272732"/><linearGradient id="k" gradientUnits="userSpaceOnUse" x1="148" x2="148" y1="90" y2="5.987717"><stop offset="0" stop-color="#3e5e8e"/><stop offset="1" stop-color="#89a4cb"/></linearGradient><linearGradient id="l" gradientTransform="matrix(1.0058652 0 0 .994169 100 0)" gradientUnits="userSpaceOnUse" x1="45.447727" x2="45.447727" y1="92.539597" y2="7.01654"><stop offset="0"/><stop offset="1" stop-opacity=".588235"/></linearGradient><linearGradient id="m" gradientTransform="matrix(1.0238095 0 0 1.0119048 -1.142857 -98.071429)" gradientUnits="userSpaceOnUse" x1="32.251034" x2="32.251034" xlink:href="#l" y1="6.131708" y2="90.238609"/><linearGradient id="n" gradientTransform="translate(0 -97)" gradientUnits="userSpaceOnUse" x1="32.251034" x2="32.251034" xlink:href="#l" y1="6.131708" y2="90.238609"/><g><g fill="url(#m)"><path d="m12-95.03125c-5.5110903 0-10.03125 4.52016-10.03125 10.03125v71c0 5.5110902 4.5201598 10.03125 10.03125 10.03125h72c5.51109 0 10.03125-4.5201597 10.03125-10.03125v-71c0-5.51109-4.52016-10.03125-10.03125-10.03125z" opacity=".08" transform="scale(1 -1)"/><path d="m12-94.03125c-4.971633 0-9.03125 4.059617-9.03125 9.03125v71c0 4.9716329 4.0596171 9.03125 9.03125 9.03125h72c4.971633 0 9.03125-4.059617 9.03125-9.03125v-71c0-4.971633-4.059617-9.03125-9.03125-9.03125z" opacity=".1" transform="scale(1 -1)"/><path d="m12-93c-4.4091333 0-8 3.590867-8 8v71c0 4.4091333 3.5908667 8 8 8h72c4.409133 0 8-3.5908667 8-8v-71c0-4.409133-3.590867-8-8-8z" opacity=".2" transform="scale(1 -1)"/><rect height="85" opacity=".3" rx="7" transform="scale(1 -1)" width="86" x="5" y="-92"/></g><rect fill="url(#n)" height="84" opacity=".45" rx="6" transform="scale(1 -1)" width="84" x="6" y="-91"/></g><g><rect fill="url(#g)" height="84" rx="6" width="84" x="6" y="6"/><path d="m12 6c-3.324 0-6 2.676-6 6v2 68 2c0 .334721.04135.6507.09375.96875.0487.295596.09704.596915.1875.875.00988.03038.020892.0636.03125.09375.098865.287771.2348802.547452.375.8125.1445918.273507.3156161.535615.5.78125s.3737765.473472.59375.6875c.439947.428056.94291.814526 1.5 1.09375.278545.139612.5734731.246947.875.34375-.2562018-.100222-.4867109-.236272-.71875-.375-.00741-.0044-.023866.0045-.03125 0-.031933-.0193-.062293-.04251-.09375-.0625-.120395-.0767-.2310226-.163513-.34375-.25-.1061728-.0808-.2132809-.161112-.3125-.25-.1779299-.161433-.3474596-.345388-.5-.53125-.1075789-.130255-.2183939-.265285-.3125-.40625-.025089-.03838-.038446-.08587-.0625-.125-.064763-.103032-.1302275-.204517-.1875-.3125-.1010083-.194706-.2056748-.415701-.28125-.625-.00796-.02181-.023589-.04055-.03125-.0625-.0318251-.09195-.0358045-.186831-.0625-.28125-.0303323-.106618-.0703894-.203031-.09375-.3125-.0728786-.341512-.125-.698205-.125-1.0625v-2-68-2c0-2.781848 2.2181517-5 5-5h2 68 2c2.781848 0 5 2.218152 5 5v2 68 2c0 .364295-.05212.720988-.125 1.0625-.04415.206893-.08838.397658-.15625.59375-.0077.02195-.0233.04069-.03125.0625-.06274.173739-.138383.367449-.21875.53125-.04158.0828-.07904.169954-.125.25-.0546.09721-.126774.18835-.1875.28125-.09411.140965-.204921.275995-.3125.40625-.143174.17445-.303141.346998-.46875.5-.01117.0102-.01998.02115-.03125.03125-.138386.125556-.285091.234436-.4375.34375-.102571.07315-.204318.153364-.3125.21875-.0074.0045-.02384-.0044-.03125 0-.232039.138728-.462548.274778-.71875.375.301527-.0968.596455-.204138.875-.34375.55709-.279224 1.060053-.665694 1.5-1.09375.219973-.214028.409366-.441865.59375-.6875s.355408-.507743.5-.78125c.14012-.265048.276135-.524729.375-.8125.01041-.03078.02133-.06274.03125-.09375.09046-.278085.1388-.579404.1875-.875.0524-.31805.09375-.634029.09375-.96875v-2-68-2c0-3.324-2.676-6-6-6z" fill="url(#b)" opacity=".4"/><path d="m12 90c-3.324 0-6-2.676-6-6v-2-68-2c0-.334721.04135-.6507.09375-.96875.0487-.295596.09704-.596915.1875-.875.00988-.03038.020892-.0636.03125-.09375.098865-.287771.2348802-.547452.375-.8125.1445918-.273507.3156161-.535615.5-.78125s.3737765-.473472.59375-.6875c.439947-.428056.94291-.814526 1.5-1.09375.278545-.139612.5734731-.246947.875-.34375-.2562018.100222-.4867109.236272-.71875.375-.00741.0044-.023866-.0045-.03125 0-.031933.0193-.062293.04251-.09375.0625-.120395.0767-.2310226.163513-.34375.25-.1061728.0808-.2132809.161112-.3125.25-.1779299.161433-.3474596.345388-.5.53125-.1075789.130255-.2183939.265285-.3125.40625-.025089.03838-.038446.08587-.0625.125-.064763.103032-.1302275.204517-.1875.3125-.1010083.194706-.2056748.415701-.28125.625-.00796.02181-.023589.04055-.03125.0625-.0318251.09195-.0358045.186831-.0625.28125-.0303323.106618-.0703894.203031-.09375.3125-.0728786.341512-.125.698205-.125 1.0625v2 68 2c0 2.781848 2.2181517 5 5 5h2 68 2c2.781848 0 5-2.218152 5-5v-2-68-2c0-.364295-.05212-.720988-.125-1.0625-.04415-.206893-.08838-.397658-.15625-.59375-.0077-.02195-.0233-.04069-.03125-.0625-.06274-.173739-.138383-.367449-.21875-.53125-.04158-.0828-.07904-.169954-.125-.25-.0546-.09721-.126774-.18835-.1875-.28125-.09411-.140965-.204921-.275995-.3125-.40625-.143174-.17445-.303141-.346998-.46875-.5-.01117-.0102-.01998-.02115-.03125-.03125-.138386-.125556-.285091-.234436-.4375-.34375-.102571-.07315-.204318-.153364-.3125-.21875-.0074-.0045-.02384.0044-.03125 0-.232039-.138728-.462548-.274778-.71875-.375.301527.0968.596455.204138.875.34375.55709.279224 1.060053.665694 1.5 1.09375.219973.214028.409366.441865.59375.6875s.355408.507743.5.78125c.14012.265048.276135.524729.375.8125.01041.03078.02133.06274.03125.09375.09046.278085.1388.579404.1875.875.0524.31805.09375.634029.09375.96875v2 68 2c0 3.324-2.676 6-6 6z" fill="url(#e)" opacity=".2"/><rect fill="url(#k)" height="84" rx="6" width="84" x="106" y="6"/></g><rect height="66" rx="12" style="opacity:.1;stroke:#fff;stroke-width:.5;stroke-linecap:round;clip-path:url(#f);fill:url(#d);filter:url(#c)" width="66" x="15" y="15"/><g transform="translate(0 1)"><path d="m48 13.75c-20.116904 0-37.25 13.555598-37.25 31.25 0 10.082276 5.917985 18.697557 14.34375 24.28125-.156911.525325-.266588 1.03901-.625 1.59375-.919882 1.423768-2.132056 2.647096-4.84375 3.4375-.01115.0032-.02005-.0032-.03125 0-.01706.0041-.01361-.0051-.03125 0-.06018.01709-.127309.03202-.125.03125.0027-.000911-.10648.04343-.15625.0625-.01244.0048-.03191.03154-.03125.03125l-.125.03125a1.2011555 1.2011555 0 0 0 -.03125 0v.03125a1.2011555 1.2011555 0 0 0 -.0625 0 1.2011555 1.2011555 0 0 0 0 .03125 1.2011555 1.2011555 0 0 0 -.03125 0 1.2011555 1.2011555 0 0 0 -.125.0625 1.2011555 1.2011555 0 0 0 -.09375.03125s-.04304.06225-.09375.09375a1.2011555 1.2011555 0 0 0 -.03125 0c-.01203.0075-.0194.02387-.03125.03125-.0071.0044-.02439-.0043-.03125 0 .000311-.0016-.02944.000453-.03125 0-.01135.0055.0064.02802 0 .03125-.0064.0032-.02556-.0029-.03125 0-.0173.0078-.0138-.0022-.0625.03125a1.2011555 1.2011555 0 0 0 -.0625.03125c-.02259.01561-.0032.01018-.03125.03125-.08339.05003-.01856.02974-.0625.0625.000255-.0016-.02938.000414-.03125 0a1.2011555 1.2011555 0 0 0 -.0625.0625c-.02131.01331.0037.0063-.03125.03125-.02227.01587-.0025-.0216-.03125 0a1.2011555 1.2011555 0 0 0 -.0625.03125c-.0002.000987-.0036.03323 0 .03125.0036-.002-.035.0024-.03125 0a1.2011555 1.2011555 0 0 0 -.21875.1875s-.03924.06292-.09375.125c-.02725.03104-.07117.03661-.09375.0625-.0056.0065.0051.02544 0 .03125-.0051.0058-.02656-.0054-.03125 0-.0011.000663.0026.02921 0 .03125-.0076.0071.0073.02449 0 .03125a1.2011555 1.2011555 0 0 0 -.03125.03125 1.2011555 1.2011555 0 0 0 -.03125 0c-.0052.0048.0042.02735 0 .03125a1.2011555 1.2011555 0 0 0 -.03125 0c-.0029.0027.0016.02973 0 .03125-.0018.0017-.03125-.000005-.03125 0a1.2011555 1.2011555 0 0 0 -.0625.0625s-.05453.07039-.09375.125c-.01961.02731-.01399.03821-.03125.0625-.0048.0068-.03376.03711-.03125.03125a1.2011555 1.2011555 0 0 0 -.03125.03125 1.2011555 1.2011555 0 0 0 0 .03125c-.01159.01821.0056-.03024-.03125.03125a1.2011555 1.2011555 0 0 0 -.03125.03125c.0076-.01071-.03409.08806 0 .03125-.0066.01-.02415-.01127-.03125 0-.006.0091.0056.02198 0 .03125a1.2011555 1.2011555 0 0 0 -.0625.0625 1.2011555 1.2011555 0 0 0 -.0625.125c-.0021.0039.000015.03121 0 .03125-.0078.01754-.03697.06771-.0625.125-.01543.03462-.01866.06536-.03125.09375s-.0061-.04717-.0625.09375c.103876-.259716.05856-.162006-.03125.0625-.01017.0212-.02229.0089-.03125.03125-.008.02004.0069.01183 0 .03125l-.0625.15625a1.2011555 1.2011555 0 0 0 -.0625.3125 1.2011555 1.2011555 0 0 0 0 .03125c-.0082.01102-.0625.06249-.0625.0625-.0055.02756.004.0078 0 .03125-.0027.01126.0023.01981 0 .03125-.0042.01621-.02797.01485-.03125.03125-.0042.02103.0032.01174 0 .03125l-.03125.15625a1.2011555 1.2011555 0 0 0 0 .03125c-.0055.02741.004.0079 0 .03125-.0027.01126.0023.01981 0 .03125-.0046.02317.0033.01139 0 .03125-.0014.0065-.02995-.0065-.03125 0-.02535.126737-.001.114057 0 .1875a1.2011555 1.2011555 0 0 0 -.03125.3125v.1875a1.2011555 1.2011555 0 0 0 0 .09375 1.2011555 1.2011555 0 0 0 0 .03125v.03125a1.2011555 1.2011555 0 0 0 0 .09375 1.2011555 1.2011555 0 0 0 0 .0625s-.0077.06251 0 .125c.0038.03125.02777.03514.03125.0625.0035.02736-.04918-.08964 0 .15625.0033.01647.02708.01498.03125.03125.0025.0098-.0028.02148 0 .03125.004.02339-.0055.0038 0 .03125a1.2011555 1.2011555 0 0 0 0 .03125l.03125.15625a1.2011555 1.2011555 0 0 0 .125.28125 1.2011555 1.2011555 0 0 0 0 .03125c-.00071.01656-.000002.09374 0 .09375.009.02249.02105.01.03125.03125.0102.02126.02005.01121.03125.03125-.000537-.0043.0414.134781 0 .03125a1.2011555 1.2011555 0 0 0 0 .03125l.0625.15625a1.2011555 1.2011555 0 0 0 0 .03125c.009.02239.02108.01006.03125.03125s.02007.01127.03125.03125c.0044.009-.0048.02234 0 .03125a1.2011555 1.2011555 0 0 0 0 .03125 1.2011555 1.2011555 0 0 0 .03125.03125 1.2011555 1.2011555 0 0 0 0 .03125 1.2011555 1.2011555 0 0 0 .03125.03125 1.2011555 1.2011555 0 0 0 .0625.125 1.2011555 1.2011555 0 0 0 0 .03125 1.2011555 1.2011555 0 0 0 .03125.09375l.09375.15625c-.0021-.0035.127451.190791.125.1875l.09375.125a1.2011555 1.2011555 0 0 0 .25.25 1.2011555 1.2011555 0 0 0 .0625.03125c.03396.03875-.01591.01534.03125.0625a1.2011555 1.2011555 0 0 0 .09375.09375s.02413.03173.0625.0625c.0061.0049.02927-.0018.03125 0l.03125.03125c.0017.0018.01733.02046.03125.03125a1.2011555 1.2011555 0 0 0 .03125.03125c.000044.000037.02773-.0024.03125 0 .0022.0015-.0033.02902 0 .03125a1.2011555 1.2011555 0 0 0 .09375.09375h.03125a1.2011555 1.2011555 0 0 0 .09375.09375c-.261615-.196184-.1894-.134223.03125.03125.04616.03462.03062.0106.0625.03125a1.2011555 1.2011555 0 0 0 .21875.15625s.08702.03165.15625.0625c.03462.01543.06536.01866.09375.03125s-.04735.0061.09375.0625c-.260051-.10401-.161888-.05853.0625.03125.02117.01016.0089.0223.03125.03125.02002.008.01185-.0069.03125 0l.15625.0625.15625.0625a1.2011555 1.2011555 0 0 0 .3125.0625c.0039.0028.02816-.0023.03125 0 .01094.008.06249.0625.0625.0625.02753.0055.0078-.004.03125 0 .0097.0028.02143-.0025.03125 0 .01622.0042.01484.02797.03125.03125.02105.0042.01174-.0032.03125 0l.15625.03125a1.2011555 1.2011555 0 0 0 .1875 0c-.0023-.000131.127276 0 .125 0-.0017 0 .05646.0011.09375 0 .01122.0012.02004-.0011.03125 0-.000022.000821.000018.03125 0 .03125.0087-.000002.01947 0 .03125 0s.05383-.000002.0625 0v-.03125c9.75377.958306 16.717111-3.140306 20.90625-6.9375 2.091265.334732 4.235923.59375 6.53125.59375 20.116904 0 37.25-13.555598 37.25-31.25s-17.133096-31.25-37.25-31.25zm-27.5625 68.5a1.2011555 1.2011555 0 0 0 .03125 0v.15625z" opacity=".05"/><path d="m48 14.9375c-19.579201 0-36.0625 13.148394-36.0625 30.0625 0 9.944956 5.976427 18.49076 14.59375 23.875-.219981.833558-.436479 1.687311-1.0625 2.65625-1.031358 1.596307-2.547994 3.075738-5.53125 3.9375-.01077.0031-.02044-.0031-.03125 0a1.0827956 1.0827956 0 0 0 -.1875.0625l-.15625.0625.40625 1c-.21083-.498642-.430172-1.002932-.4375-1-.01466.0059-.01172.02344-.03125.03125-.01953.0078-.0479.02541-.0625.03125-.0146.0058-.03125 0-.03125 0s-.238337.147502-.25.15625c-.01166.0087-.04687.01953-.0625.03125.01466-.0088-.0625.03125-.0625.03125-.01125.0067-.02248.02599-.03125.03125-.01461.0088-.03125 0-.03125 0s-.08203.08496-.09375.09375c-.01172.0088-.04687.01953-.0625.03125s-.01957.02249-.03125.03125c-.01168.0088-.03125 0-.03125 0s-.210012.238349-.21875.25c-.0087.01165-.01953.01562-.03125.03125-.006.006.0063.025 0 .03125-.0023.003-.02911-.0028-.03125 0-.01328.01555-.03125.03125-.03125.03125-.01168.01168-.03125.03125-.03125.03125s-.147484.20414-.15625.21875c-.0088.01461-.01953.04296-.03125.0625s-.02245.01659-.03125.03125-.03125.03125-.03125.03125c-.0043.0057.0035.02658 0 .03125-.0087.01166-.03125 0-.03125 0s-.119159.266646-.125.28125c-.0058.0146-.02343.04296-.03125.0625-.0078.01954-.02538.01659-.03125.03125-.0059.01466 0 .03125 0 .03125l-.0625.15625 1 .40625 1.03125.34375s-2.090832-.545842-2.09375-.53125c-.0029.01459.0039.04297 0 .0625s-.02832.01659-.03125.03125c-.0029.01466 0 .03125 0 .03125l-.03125.15625.71875.15625c-.324382-.05392-.717756-.12997-.71875-.125-.0029.01467.0039.04296 0 .0625s-.02833.01666-.03125.03125c-.0029.01459 0 .03125 0 .03125l1.0625.21875h-1.09375v.1875h1.09375c-.541299.0092-1.09375.02392-1.09375.03125.000001.01466-.000001.04296 0 .0625s0 .01665 0 .03125v.03125s.02833.235394.03125.25c.0029.01461.02734.01171.03125.03125.0039.01954-.0029.04785 0 .0625s0 .03125 0 .03125l.03125.15625 1.0625-.21875 1.03125-.28125s-2.037092.704147-2.03125.71875c.0058.0146.02344.01171.03125.03125.0078.01954.02539.04784.03125.0625.0059.01466 0 .03125 0 .03125l.0625.15625.8125-.34375c-.399535.176421-.814937.368909-.8125.375.0059.01467.02343.01172.03125.03125.0078.01953.02541.04791.03125.0625.0058.01459 0 .03125 0 .03125l1-.40625-.9375.5625.09375.15625a1.0827956 1.0827956 0 0 0 .0625.09375l.09375.125.875-.65625.84375-.6875s-1.605441 1.457059-1.59375 1.46875c.01169.01169.04687.01562.0625.03125s.01953.05078.03125.0625c0 0 .144588.116254.15625.125.01166.0087.01562.01953.03125.03125.0073.0073.02343.02344.03125.03125.0078.0066.02631-.0042.03125 0 .0073.0073-.0058.02541 0 .03125.01168.01167.03125.03125.03125.03125s.113277.08496.125.09375c.01172.0088.01562.01953.03125.03125s.05082.02249.0625.03125c.01168.0088 0 .03125 0 .03125s.266666.119167.28125.125c.01458.0058.04297.02343.0625.03125.01953.0078.01657.02538.03125.03125.01468.0059.03125 0 .03125 0l.15625.0625.15625.0625.40625-1 .3125-1.03125s-.514605 2.090829-.5 2.09375c.0146.0029.04297-.0039.0625 0s.0166.02832.03125.03125c.01465.0029.03125 0 .03125 0l.15625.03125a1.0827956 1.0827956 0 0 0 .125 0 1.0827956 1.0827956 0 0 0 .0625.03125c-.001-.000016.09477-.000016.09375 0v-.03125c9.746199 1.001679 16.579987-3.248053 20.5625-7 2.214899.369558 4.488708.65625 6.875.65625 19.579201 0 36.0625-13.148394 36.0625-30.0625s-16.483299-30.0625-36.0625-30.0625zm2.78125 15.125c.601492.000018.591443-.0134 1 .375.01551.01474.01445.01533.03125.03125a1.0827956 1.0827956 0 0 0 .03125.03125c.463223.436524.343742.171276.34375.71875-.000008.557567.08353.363778-.3125.71875-.01407.01289-.018.01916-.03125.03125-.371618.3389-.460744.375013-1.0625.375-.606796.000013-.712996-.03482-1.09375-.375-.02392-.02227-.01031-.01248-.03125-.03125-.396024-.354961-.312504-.16122-.3125-.71875-.000004-.586962-.132661-.306432.34375-.75.438907-.408625.474466-.406232 1.09375-.40625zm-3.46875 12.375c.514692.09218 1.135785.141612 1.34375.3125-.0015-.0015.09538.09517.09375.09375.258519.226709.335859.316591.375.40625.03914.08966.06249.270104.0625.6875-.000015.223264.03249.606727-.03125 1.21875a1.0827956 1.0827956 0 0 0 -.03125.03125c-.04207.504726-.122106.979916-.25 1.40625a1.0827956 1.0827956 0 0 0 0 .03125l-1.875 6.625v.03125c-.177163.622333-.362116 1.318089-.5 2.09375-.137008.770579-.250022 1.45564-.25 2.125-.000009.71305.158687 1.541706.46875 2.34375-.700229-.09323-1.172679-.239501-1.4375-.46875-.521995-.47649-.468752-.371786-.46875-1.09375-.000003-.354768.0018-.781776.0625-1.21875.06073-.449377.197846-1.014862.34375-1.625a1.0827956 1.0827956 0 0 0 .03125-.3125l1.65625-5.9375a1.0827956 1.0827956 0 0 0 .03125-.03125 1.0827956 1.0827956 0 0 0 .09375-.28125 1.0827956 1.0827956 0 0 0 0-.0625h.03125a1.0827956 1.0827956 0 0 0 0-.03125c.01001-.03975.02612-.07392.03125-.09375a1.0827956 1.0827956 0 0 0 0-.0625c.149008-.576676.295766-1.171453.40625-1.75.08351-.437337.07905-.449033 0-.03125.147035-.717231.249992-1.423741.25-2.125-.000004-.694917-.153355-1.49643-.4375-2.28125z" opacity=".05"/><path d="m48 16.03125c-19.096863 0-34.96875 12.7615-34.96875 28.96875 0 9.812619 6.015233 18.310203 14.8125 23.5-.227788 1.047432-.613208 2.300814-1.46875 3.625-1.149033 1.778442-2.947053 3.481431-6.21875 4.40625a.98625776.98625776 0 0 0 -.03125 0c.000104-.000035-.156351.06254-.15625.0625.000101-.000043-.156347.06255-.15625.0625.000097-.000052-.125092.09381-.125.09375s-.156337.09382-.15625.09375c.000087-.000067-.125081.09382-.125.09375.000081-.000074-.09382.125081-.09375.125.000074-.000081-.125067.125087-.125.125s-.09381.156342-.09375.15625-.0938.125097-.09375.125c.000052-.000097-.06254.156351-.0625.15625.000044-.000101-.06254.156354-.0625.15625.000035-.000104-.03128.156357-.03125.15625.000026-.000107-.03127.156359-.03125.15625.000017-.000109-.03126.15636-.03125.15625.000008-.00011.000002.18761 0 .1875s.000011.156359 0 .15625.03127.156358.03125.15625.03128.156356.03125.15625c-.000029-.000106.06254.156353.0625.15625-.000038-.000103.06255.15635.0625.15625-.000046-.0001.06255.156345.0625.15625-.000055-.000095.09381.156341.09375.15625-.000062-.000091.09382.125085.09375.125s.125077.125079.125.125.125083.09382.125.09375c-.000083-.000072.125089.125065.125.125s.125094.09381.125.09375c-.000094-.000057.156348.06255.15625.0625-.000098-.000049.156352.06254.15625.0625-.000102-.000041.156355.06253.15625.0625-.000105-.000032.156358.03127.15625.03125-.000108-.000023.156359.03126.15625.03125a.98625776.98625776 0 0 0 .03125 0c9.754627 1.060137 16.452148-3.359222 20.25-7.0625 2.330745.410391 4.727971.6875 7.21875.6875 19.096863 0 34.96875-12.7615 34.96875-28.96875s-15.871887-28.96875-34.96875-28.96875zm2.78125 12.9375c.790393.000023 1.214533.181891 1.78125.71875a.98625776.98625776 0 0 0 .03125 0 .98625776.98625776 0 0 0 0 .03125c.542535.511264.68749.802522.6875 1.5-.00001.709605-.120504 1.003367-.6875 1.53125-.538375.493462-1.013887.687517-1.8125.6875-.800256.000017-1.292584-.191183-1.84375-.6875-.567006-.527879-.687505-.821669-.6875-1.53125-.000005-.709505.12045-1.003291.6875-1.53125.568597-.529367 1.051877-.718727 1.84375-.71875zm-4.1875 12.1875c1.400402.000018 2.209121.305553 2.75.75a.98625776.98625776 0 0 0 .03125.03125.98625776.98625776 0 0 0 .09375.09375c.625004.5481.812489.93249.8125 1.90625-.000013.19526.0075.671378-.0625 1.34375-.04926.591107-.16629 1.13761-.3125 1.625l-1.875 6.65625c-.172996.605448-.336813 1.257794-.46875 2-.132655.746095-.218768 1.379571-.21875 1.9375-.000015 1.152626.245066 2.481629 1.3125 3.34375-.381048.05711-.658677.1875-1.125.1875-1.51633 0-2.384567-.338037-2.96875-.84375-.634059-.578784-.843752-1.014548-.84375-1.90625-.000003-.399671.02486-.879022.09375-1.375.06933-.513038.194313-1.093836.34375-1.71875h-.03125l1.84375-6.5625a.98625776.98625776 0 0 0 0-.03125h.03125a.98625776.98625776 0 0 0 0-.0625c.0114-.04369.02002-.08155.03125-.125.153963-.595707.300977-1.167493.40625-1.71875.0018-.0095-.0018-.02175 0-.03125.139511-.672961.218743-1.318439.21875-1.9375-.000007-1.102116-.198175-2.332154-1.125-3.21875-.06479-.06197-.151112-.06987-.21875-.125.425564-.0802.914036-.218742 1.28125-.21875z" opacity=".12"/><path d="m48 17.03125c-18.659679 0-33.96875 12.408319-33.96875 27.96875 0 9.666704 5.998045 18.089309 14.9375 23.09375-.210518 1.192634-.651323 2.861997-1.75 4.5625-1.255074 1.94257-3.29009 3.825645-6.78125 4.8125a.98224108.98224108 0 0 0 .1875 1.90625c9.690483 1.053166 16.245683-3.495918 19.84375-7.125 2.428859.454466 4.934363.71875 7.53125.71875 18.659679 0 33.96875-12.408319 33.96875-27.96875s-15.309071-27.96875-33.96875-27.96875zm2.78125 10.9375c1.007695.000029 1.764782.333122 2.46875 1a.98224108.98224108 0 0 0 .03125 0c.712832.66371.999987 1.334309 1 2.25-.000013.915768-.287194 1.586365-1 2.25-.700314.65118-1.483838.968771-2.5.96875-1.01619.000021-1.816168-.315283-2.53125-.96875-.712825-.663635-1.000006-1.334243-1-2.25-.000006-.91568.287149-1.586291 1-2.25.718676-.669091 1.523526-.999971 2.53125-1zm-4.1875 12.1875c1.647252.000021 2.776659.409927 3.53125 1.09375a.98224108.98224108 0 0 0 0 .03125c.789201.692093 1.156237 1.477741 1.15625 2.65625-.000017.249936-.02084.737446-.09375 1.4375-.05533.663875-.17974 1.265775-.34375 1.8125l-1.875 6.65625c-.164118.574377-.311318 1.196418-.4375 1.90625-.126455.711223-.187515 1.276958-.1875 1.75-.000013 1.030183.191839 1.960261.9375 2.5625.714754.577327 1.612385.6875 2.6875.6875.324083 0 .702325-.09895 1.0625-.15625-1.020855.390272-2.02344.774891-2.6875 1a.98224108.98224108 0 0 0 -.03125 0c-.764788.272213-1.67463.4375-2.78125.4375-1.675076 0-2.828761-.404465-3.625-1.09375-.804047-.726863-1.187502-1.53025-1.1875-2.65625-.000003-.473409.05309-.98231.125-1.5.07417-.548821.187114-1.157481.34375-1.8125l1.84375-6.59375a.98224108.98224108 0 0 0 0-.03125c.174272-.66541.327326-1.292663.4375-1.875.131268-.623531.187494-1.186692.1875-1.75-.000006-.992024-.166131-1.881687-.8125-2.5-.65672-.628122-1.567463-.781227-2.6875-.78125-.336656.000014-.648276.09628-.96875.15625.855793-.325289 1.706705-.659671 2.5-.90625a.98224108.98224108 0 0 0 .03125 0c1.055102-.342176 1.997377-.53123 2.875-.53125z" opacity=".24"/></g><path d="m48 18c-18.225397 0-33 12.088312-33 27 0 9.498438 5.99976 17.843462 15.0625 22.65625-.344625 2.508754-1.914014 8.649817-9.34375 10.75 9.622915 1.045823 16.013601-3.646306 19.40625-7.1875 2.523507.505501 5.161067.78125 7.875.78125 18.225397 0 33-12.088312 33-27s-14.774603-27-33-27zm2.78125 9c1.234272.000035 2.287664.427178 3.15625 1.25.883793.82289 1.312484 1.810687 1.3125 2.96875-.000016 1.158126-.428707 2.145922-1.3125 2.96875-.868586.807646-1.921978 1.218776-3.15625 1.21875-1.234296.000026-2.303701-.411104-3.1875-1.21875-.883818-.822828-1.312508-1.810624-1.3125-2.96875-.000008-1.158063.428682-2.14586 1.3125-2.96875.883799-.822822 1.953204-1.249965 3.1875-1.25zm-4.1875 12.1875c1.813322.000023 3.21225.459962 4.1875 1.34375.990463.868591 1.468735 2.004366 1.46875 3.40625-.00002.289543-.01757.799839-.09375 1.53125-.06096.731444-.192156 1.390491-.375 2l-1.875 6.65625c-.152392.533338-.284356 1.126791-.40625 1.8125-.12192.685719-.187511 1.212028-.1875 1.5625-.000011.883819.197549 1.492505.59375 1.8125.396179.320005 1.087249.46875 2.0625.46875.457129 0 .983438-.06635 1.5625-.21875.579032-.167624.990935-.315585 1.25-.4375l-.5 2.0625c-1.508586.594281-2.725966 1.038988-3.625 1.34375-.899059.320005-1.936438.46875-3.125.46875-1.828578 0-3.260303-.42869-4.28125-1.3125-1.005718-.899043-1.500003-2.034821-1.5-3.40625-.000003-.533328.0488-1.076419.125-1.625.07619-.563795.176128-1.205288.34375-1.90625l1.875-6.65625c.167613-.639985.299578-1.248675.40625-1.8125.1219-.579031.187495-1.090102.1875-1.5625-.000005-.853315-.18078-1.445992-.53125-1.78125-.350481-.335219-1.009529-.53123-2-.53125-.487622.00002-.981907.09765-1.5.25-.502858.152401-.946787.300377-1.3125.4375l.5-2.0625c1.234283-.502836 2.434878-.930752 3.5625-1.28125 1.127613-.365692 2.181778-.562477 3.1875-.5625z" fill="url(#i)"/><path d="m-52 18c-18.225397 0-33 12.088312-33 27 0 9.498438 5.99976 17.843462 15.0625 22.65625-.344625 2.508754-1.914014 8.649817-9.34375 10.75 9.622915 1.045823 16.013601-3.646306 19.40625-7.1875 2.523507.505501 5.161067.78125 7.875.78125 18.225397 0 33-12.088312 33-27s-14.774603-27-33-27z" fill="#d40000" opacity=".4"/><path d="m-52 18c-18.225397 0-33 12.088312-33 27 0 9.498438 5.99976 17.843462 15.0625 22.65625-.344625 2.508754-1.914014 8.649817-9.34375 10.75 9.622915 1.045823 16.013601-3.646306 19.40625-7.1875 2.523507.505501 5.161067.78125 7.875.78125 18.225397 0 33-12.088312 33-27s-14.774603-27-33-27zm0 2.9375c16.920322 0 30.0625 11.100368 30.0625 24.0625s-13.142178 24.0625-30.0625 24.0625c-2.514011 0-4.943414-.281692-7.28125-.75a2.9517629 2.9517629 0 0 0 -2.71875.875c-1.62088 1.691849-4.004104 3.567605-7.125 4.875 1.341535-2.353896 1.934715-4.614792 2.125-6a2.9517629 2.9517629 0 0 0 -1.5625-3c-8.291128-4.403022-13.5-11.80694-13.5-20.0625 0-12.962132 13.142178-24.0625 30.0625-24.0625z" opacity=".05"/><path d="m-52 18c-18.225397 0-33 12.088312-33 27 0 9.498438 5.99976 17.843462 15.0625 22.65625-.344625 2.508754-1.914014 8.649817-9.34375 10.75 9.622915 1.045823 16.013601-3.646306 19.40625-7.1875 2.523507.505501 5.161067.78125 7.875.78125 18.225397 0 33-12.088312 33-27s-14.774603-27-33-27zm0 1.875c17.393221 0 31.125 11.456439 31.125 25.125s-13.731779 25.125-31.125 25.125c-2.586453 0-5.094885-.268215-7.5-.75a1.8821808 1.8821808 0 0 0 -1.71875.53125c-2.229762 2.327391-5.862118 5.104965-10.90625 6.21875.603013-.636706 1.319873-1.240512 1.75-1.90625 1.573141-2.434865 2.115946-4.881651 2.3125-6.3125a1.8821808 1.8821808 0 0 0 -1-1.90625c-8.570725-4.551502-14.0625-12.294079-14.0625-21 0-13.668561 13.731779-25.125 31.125-25.125z" opacity=".08"/><path d="m-52 18c-18.225397 0-33 12.088312-33 27 0 9.498438 5.99976 17.843462 15.0625 22.65625-.344625 2.508754-1.914014 8.649817-9.34375 10.75 9.622915 1.045823 16.013601-3.646306 19.40625-7.1875 2.523507.505501 5.161067.78125 7.875.78125 18.225397 0 33-12.088312 33-27s-14.774603-27-33-27zm0 1.0625c17.7572 0 31.9375 11.725217 31.9375 25.9375s-14.1803 25.9375-31.9375 25.9375c-2.642211 0-5.199353-.257842-7.65625-.75a1.0589482 1.0589482 0 0 0 -.96875.3125c-2.643757 2.759512-7.248859 6.049087-13.78125 6.71875 1.442602-1.037266 2.550304-2.240676 3.34375-3.46875 1.481728-2.293379 2.001549-4.583837 2.1875-5.9375a1.0589482 1.0589482 0 0 0 -.5625-1.09375c-8.785923-4.665784-14.5-12.666196-14.5-21.71875 0-14.212283 14.1803-25.9375 31.9375-25.9375z" opacity=".15"/><path d="m48 18c-18.225397 0-33 12.088312-33 27 0 .208408.0255.417728.03125.625.883843-14.265986 15.312897-25.625 32.96875-25.625 17.811103 0 32.318034 11.557401 32.96875 26 .015136-.335941.03125-.661032.03125-1 0-14.911688-14.774603-27-33-27zm-1.59375 14.21875c-.07734.315923-.125002.653784-.125 1-.000008 1.158126.428682 2.145922 1.3125 2.96875.883799.807646 1.953204 1.218776 3.1875 1.21875 1.234272.000026 2.287664-.411104 3.15625-1.21875.883793-.822828 1.312484-1.810624 1.3125-2.96875-.000005-.346216-.04766-.684077-.125-1-.181353.74083-.567927 1.391916-1.1875 1.96875-.868586.807646-1.921978 1.218776-3.15625 1.21875-1.234296.000026-2.303701-.411104-3.1875-1.21875-.619591-.576834-1.006154-1.22792-1.1875-1.96875zm-4.25 10.1875c-.31552.000013-.643006.05487-.96875.125-.44524.165332-.887309.31405-1.34375.5l-.5 2.0625c.365713-.137123.809642-.285099 1.3125-.4375.518093-.15235 1.012378-.24998 1.5-.25.990471.00002 1.649519.196031 2 .53125.197387.18882.349747.459797.4375.8125.05642-.361246.09375-.713815.09375-1.03125-.000005-.853315-.18078-1.445992-.53125-1.78125-.350481-.335219-1.009529-.53123-2-.53125zm10.03125 2.75c-.01103.131118-.01567.162879-.03125.3125-.06096.731444-.192156 1.390491-.375 2l-1.875 6.65625c-.152392.533338-.284356 1.126791-.40625 1.8125-.12192.685719-.187511 1.212028-.1875 1.5625-.000005.373673.05429.694464.125.96875.02578-.172785.02686-.330815.0625-.53125.121894-.685709.253858-1.279162.40625-1.8125l1.875-6.65625c.182844-.609509.31404-1.268556.375-2 .07618-.731411.09373-1.241707.09375-1.53125-.000003-.273456-.02585-.528053-.0625-.78125zm-10.375 13.90625c-.04575.408569-.0625.819338-.0625 1.21875-.000003 1.371429.494282 2.507207 1.5 3.40625 1.020947.88381 2.452672 1.3125 4.28125 1.3125 1.188562 0 2.225941-.148745 3.125-.46875.899034-.304762 2.116414-.749469 3.625-1.34375l.5-2.0625c-.259065.121915-.670968.269876-1.25.4375-.188753.04968-.354276.06168-.53125.09375-.841033.317027-1.761977.677786-2.34375.875-.899059.320005-1.936438.46875-3.125.46875-1.828578 0-3.260303-.42869-4.28125-1.3125-.803278-.718076-1.278013-1.605431-1.4375-2.625zm-12.125 10.375c-.788875 2.925833-2.942108 7.265183-8.96875 8.96875 1.438598.156348 2.798846.170865 4.09375.09375 3.95088-2.735394 4.981412-6.888521 5.25-8.84375-.129197-.06861-.247056-.148711-.375-.21875z" fill="url(#j)"/><path d="m-49.214466 27c-1.234296.000035-2.303701.427178-3.1875 1.25-.883818.82289-1.312508 1.810687-1.3125 2.96875-.000008 1.158126.428682 2.145922 1.3125 2.96875.883799.807646 1.953204 1.218776 3.1875 1.21875 1.234272.000026 2.287664-.411104 3.15625-1.21875.883793-.822828 1.312484-1.810624 1.3125-2.96875-.000016-1.158063-.428707-2.14586-1.3125-2.96875-.868586-.822822-1.921978-1.249965-3.15625-1.25zm-4.1875 12.1875c-1.005722.000023-2.059887.196808-3.1875.5625-1.127622.350498-2.328217.778414-3.5625 1.28125l-.5 2.0625c.365713-.137123.809642-.285099 1.3125-.4375.518093-.152351 1.012378-.24998 1.5-.25.990471.00002 1.649519.196031 2 .53125.35047.335258.531245.927935.53125 1.78125-.000005.472398-.0656.983469-.1875 1.5625-.106672.563825-.238637 1.172515-.40625 1.8125l-1.875 6.65625c-.167622.700962-.26756 1.342455-.34375 1.90625-.0762.548581-.125003 1.091672-.125 1.625-.000003 1.371429.494282 2.507207 1.5 3.40625 1.020947.88381 2.452672 1.3125 4.28125 1.3125 1.188562 0 2.225941-.148745 3.125-.46875.899034-.304762 2.116414-.749469 3.625-1.34375l.5-2.0625c-.259065.121915-.670968.269876-1.25.4375-.579062.152397-1.105371.21875-1.5625.21875-.975251 0-1.666321-.148745-2.0625-.46875-.396201-.319995-.593761-.928681-.59375-1.8125-.000011-.350472.06558-.876781.1875-1.5625.121894-.685709.253858-1.279162.40625-1.8125l1.875-6.65625c.182844-.609509.31404-1.268556.375-2 .07618-.731411.09373-1.241707.09375-1.53125-.000015-1.401884-.478287-2.537659-1.46875-3.40625-.97525-.883788-2.374178-1.343727-4.1875-1.34375z" fill="url(#h)"/></svg>