<svg height="96" width="96" xmlns="http://www.w3.org/2000/svg" xmlns:xlink="http://www.w3.org/1999/xlink"><linearGradient id="a"><stop offset="0" stop-color="#fefefe"/><stop offset="1" stop-color="#fefefe" stop-opacity="0"/></linearGradient><filter id="b" color-interpolation-filters="sRGB" height="1.384" width="1.384" x="-.192" y="-.192"><feGaussianBlur stdDeviation="5.28"/></filter><linearGradient id="c" gradientUnits="userSpaceOnUse" x1="48" x2="48" xlink:href="#a" y1="20.220806" y2="138.66119"/><clipPath id="d"><rect height="84" rx="6" width="84" x="6" y="6"/></clipPath><linearGradient id="e" gradientUnits="userSpaceOnUse" x1="54.75" x2="54.75" y1="90" y2="5.979473"><stop offset="0" stop-color="#793c1c"/><stop offset="1" stop-color="#bd6332"/></linearGradient><linearGradient id="f" gradientUnits="userSpaceOnUse" x1="16" x2="16" y1="88" y2="8"><stop offset="0" stop-color="#1a1a1a"/><stop offset="1" stop-color="#2a2a2a"/></linearGradient><linearGradient id="g" gradientUnits="userSpaceOnUse" x1="9" x2="9" y1="22" y2="26"><stop offset="0" stop-color="#8a8a8a"/><stop offset=".40964222" stop-color="#d5d5d5"/><stop offset=".72741055" stop-color="#6f6f6f"/><stop offset="1" stop-color="#373737"/></linearGradient><linearGradient id="h" gradientUnits="userSpaceOnUse" spreadMethod="reflect" x1="4" x2="12" y1="24" y2="24"><stop offset="0"/><stop offset=".5" stop-opacity=".193798"/><stop offset="1" stop-opacity="0"/></linearGradient><linearGradient id="i" gradientTransform="matrix(0 1 1 0 -10 10)" gradientUnits="userSpaceOnUse" x1="10" x2="18" y1="24" y2="24"><stop offset="0"/><stop offset=".5" stop-opacity="0"/><stop offset="1" stop-color="#fefefe"/></linearGradient><linearGradient id="j" gradientTransform="matrix(1.0058652 0 0 .994169 100 0)" gradientUnits="userSpaceOnUse" x1="45.447727" x2="45.447727" y1="92.539597" y2="7.01654"><stop offset="0"/><stop offset="1" stop-opacity=".588235"/></linearGradient><linearGradient id="k" gradientTransform="matrix(1.0238095 0 0 1.0119048 -1.142857 -98.071429)" gradientUnits="userSpaceOnUse" x1="32.251034" x2="32.251034" xlink:href="#j" y1="6.131708" y2="90.238609"/><linearGradient id="l" gradientTransform="translate(0 -97)" gradientUnits="userSpaceOnUse" x1="32.251034" x2="32.251034" xlink:href="#j" y1="6.131708" y2="90.238609"/><linearGradient id="m" gradientUnits="userSpaceOnUse" x1="36.357143" x2="36.357143" xlink:href="#a" y1="6" y2="63.893143"/><radialGradient id="n" cx="48" cy="90.171875" gradientTransform="matrix(1.1573129 0 0 .99590774 -7.551021 .197132)" gradientUnits="userSpaceOnUse" r="42" xlink:href="#a"/><linearGradient id="o" gradientUnits="userSpaceOnUse" x1="54.75" x2="54.75" y1="90" y2="5.979473"><stop offset="0" stop-color="#8b4217"/><stop offset="1" stop-color="#b85c30"/></linearGradient><linearGradient id="p" gradientUnits="userSpaceOnUse" x1="88" x2="88" y1="88" y2="8"><stop offset="0" stop-color="#d9d9d9"/><stop offset="1" stop-color="#fefefe"/></linearGradient><linearGradient id="q" gradientUnits="userSpaceOnUse" x1="83" x2="83" y1="62" y2="45.968781"><stop offset="0" stop-color="#ff8e00"/><stop offset="1" stop-color="#ffcc0a"/></linearGradient><linearGradient id="r" gradientUnits="userSpaceOnUse" x1="84" x2="84" y1="44" y2="28"><stop offset="0" stop-color="#4baa0c"/><stop offset="1" stop-color="#66d819"/></linearGradient><linearGradient id="s" gradientUnits="userSpaceOnUse" x1="84" x2="84" y1="26" y2="9.968781"><stop offset="0" stop-color="#0092ff"/><stop offset="1" stop-color="#0085ff"/></linearGradient><linearGradient id="t" gradientUnits="userSpaceOnUse" x1="82.999997" x2="82.999997" y1="80" y2="63.968781"><stop offset="0" stop-color="#ff2319"/><stop offset="1" stop-color="#ff3733"/></linearGradient><linearGradient id="u" gradientUnits="userSpaceOnUse" x1="127.17227947188" x2="127.17227947188" y1="26.51600047677" y2="84.748964"><stop offset="0" stop-opacity=".80916"/><stop offset="1" stop-opacity=".435115"/></linearGradient><g><g fill="url(#k)"><path d="m12-95.03125c-5.5110903 0-10.03125 4.52016-10.03125 10.03125v71c0 5.5110902 4.5201598 10.03125 10.03125 10.03125h72c5.51109 0 10.03125-4.5201597 10.03125-10.03125v-71c0-5.51109-4.52016-10.03125-10.03125-10.03125z" opacity=".08" transform="scale(1 -1)"/><path d="m12-94.03125c-4.971633 0-9.03125 4.059617-9.03125 9.03125v71c0 4.9716329 4.0596171 9.03125 9.03125 9.03125h72c4.971633 0 9.03125-4.059617 9.03125-9.03125v-71c0-4.971633-4.059617-9.03125-9.03125-9.03125z" opacity=".1" transform="scale(1 -1)"/><path d="m12-93c-4.4091333 0-8 3.590867-8 8v71c0 4.4091333 3.5908667 8 8 8h72c4.409133 0 8-3.5908667 8-8v-71c0-4.409133-3.590867-8-8-8z" opacity=".2" transform="scale(1 -1)"/><rect height="85" opacity=".3" rx="7" transform="scale(1 -1)" width="86" x="5" y="-92"/></g><rect fill="url(#l)" height="84" opacity=".45" rx="6" transform="scale(1 -1)" width="84" x="6" y="-91"/></g><path d="m72 6v84h12c3.324 0 6-2.676 6-6v-72c0-3.324-2.676-6-6-6z" fill="url(#o)"/><path d="m74.09375 8.09375v79.8125h9.90625c2.197065 0 3.90625-1.709185 3.90625-3.90625v-72c0-2.1970647-1.709185-3.90625-3.90625-3.90625z" fill="url(#p)"/><path d="m66 6v84h12c3.324 0 6-2.676 6-6v-72c0-3.324-2.676-6-6-6z" opacity=".1"/><rect fill="url(#s)" height="16" rx="2" width="8" x="79" y="10"/><path d="m79 23v1c0 1.108.892 2 2 2h4c1.108 0 2-.892 2-2v-1c0 1.108-.892 2-2 2h-4c-1.108 0-2-.892-2-2z" opacity=".2"/><rect fill="url(#q)" height="16" rx="2" width="8" x="79" y="46"/><path d="m79 59v1c0 1.108.892 2 2 2h4c1.108 0 2-.892 2-2v-1c0 1.108-.892 2-2 2h-4c-1.108 0-2-.892-2-2z" opacity=".2"/><rect fill="url(#r)" height="16" rx="2" width="8" x="79" y="28"/><path d="m79 41v1c0 1.108.892 2 2 2h4c1.108 0 2-.892 2-2v-1c0 1.108-.892 2-2 2h-4c-1.108 0-2-.892-2-2z" opacity=".2"/><rect fill="url(#t)" height="16" rx="2" width="8" x="79" y="64"/><path d="m65 6v84h12c3.324 0 6-2.676 6-6v-72c0-3.324-2.676-6-6-6z" opacity=".3"/><path d="m79 77v1c0 1.108.892 2 2 2h4c1.108 0 2-.892 2-2v-1c0 1.108-.892 2-2 2h-4c-1.108 0-2-.892-2-2z" opacity=".2"/><rect fill="url(#e)" height="84" rx="6" width="76" x="6" y="6"/><path d="m24 6h1v84h-1z" fill="#fefefe" opacity=".15"/><path d="m12 6c-3.324 0-6 2.676-6 6v72c0 3.324 2.676 6 6 6h12v-84z" fill="url(#f)"/><path d="m23 6h1v84h-1z" opacity=".4"/><path d="m12 6c-3.850252-.1353517-6.5686618 3.7428302-6 7.356285.0181568 23.711195-.0363099 47.424404.027225 71.134342-.8586996 2.298359 4.493245 5.809116 3.285275 4.728123-3.2052141-1.988841-2.1220579-6.022388-2.3125-9.157368.0170642-22.525111-.0341263-45.051918.02559-67.575969.2088979-3.2591641 3.61326-4.9420973 6.556743-4.485413 20.977204.01712 41.95611-.034203 62.932254.02559 3.259164.208898 4.942097 3.61326 4.485413 6.556743-.02345 23.652105.0469 47.307263-.03517 70.957461.412935 2.431244-5.152855 5.528097-1.087717 2.991175 3.063759-2.516765 1.889129-6.711116 2.122887-10.147729-.020565-22.332543.041139-44.667148-.030864-66.998401-.250943-3.7342058-4.101334-5.8996346-7.551469-5.384839-20.805889 0-41.611778 0-62.417667 0z" fill="url(#m)" opacity=".3"/><path d="m12 90c-3.850252.135352-6.5686618-3.74283-6-7.356285.0181568-23.711195-.0363099-47.424404.027225-71.134342-.8586996-2.2983594 4.493245-5.8091155 3.285275-4.728123-3.2052141 1.9888411-2.1220579 6.022388-2.3125 9.157368.0170642 22.525111-.0341263 45.051918.02559 67.575969.2088979 3.259164 3.61326 4.942097 6.556743 4.485413 20.977204-.01712 41.95611.034203 62.932254-.02559 3.259164-.208898 4.942097-3.61326 4.485413-6.556743-.023449-23.652105.046897-47.307263-.03517-70.957461.412935-2.4312444-5.152855-5.528097-1.087717-2.9911747 3.063759 2.5167643 1.889129 6.7111157 2.122887 10.1477287-.020565 22.332543.041139 44.667148-.030864 66.998401-.250943 3.734206-4.101334 5.899635-7.551469 5.384839-20.805889 0-41.611778 0-62.417667 0z" fill="url(#n)" opacity=".2"/><rect height="66" rx="12" style="opacity:.1;stroke:#fefefe;stroke-width:.5;stroke-linecap:round;clip-path:url(#d);fill:url(#c);filter:url(#b)" width="66" x="15" y="15"/><g id="v"><path d="m10 24c0-2.209139 1.790861-4 4-4s4 1.790861 4 4-1.790861 4-4 4-4-1.790861-4-4zm1 0c0 1.656854 1.343146 3 3 3s3-1.343146 3-3-1.343146-3-3-3-3 1.343146-3 3z" fill="url(#i)" opacity=".3"/><path d="m6 21v7h8c1.646385 0 3-1.579217 3-3.5 0-1.920782-1.353615-3.5-3-3.5z" opacity=".3"/><path d="m17 24a3 3 0 1 1 -6 0 3 3 0 1 1 6 0z" opacity=".6"/><rect fill="url(#g)" height="4" rx="2" width="12" x="4" y="22"/><rect fill="url(#h)" height="4" opacity=".6" rx="2" width="12" x="4" y="22"/></g><use height="96" transform="translate(0 12)" width="96" xlink:href="#v"/><use height="96" transform="translate(0 24)" width="96" xlink:href="#v"/><use height="96" transform="translate(0 36)" width="96" xlink:href="#v"/><use height="96" transform="translate(0 48)" width="96" xlink:href="#v"/><g transform="matrix(.78417547 0 0 .78417547 -53.860521 4.683659)"><path d="m136.27118 26.516001c-8.63249 0-15.55084 6.501246-15.55084 14.558239.0195.857964.0836 2.098103.16542 3.143257-1.47621.626528-1.58393 3.499539-.33089 6.451947.4969 1.170782 1.12978 2.069747 1.81978 2.81239.16764.829747.12369 1.202256.33089 2.150649.5782 1.734607 2.8578 5.134203 4.96303 7.940859.20643 2.155466.42058 4.330676 0 6.782816-6.06608 5.03277-21.69517 7.19742-21.67192 12.40759l-.33086 1.98522h61.21079l-.33088-1.98522c-.0249-4.4592-15.68022-7.19742-21.67192-12.40759-.24243-1.99446-.28865-3.99122-.16542-5.955644 1.91832-2.960363 4.48446-6.835996 5.12847-8.768031.23145-.978363.3157-1.639104.4963-2.48152.57483-.696291 1.06547-1.483807 1.48892-2.481519 1.1904-2.804786 1.11346-5.482299-.16542-6.286513.0754-1.130088.13221-2.332543.16542-3.308691 0-8.056993-6.91835-14.558239-15.55085-14.558239z" fill="url(#u)" opacity=".6"/><path d="m136.27118 26.516001c-8.63249 0-15.52499 6.501248-15.52499 14.558241.0195.857964.0319 2.082593.11373 3.127747-1.4762.626528-1.53738 3.530559-.28434 6.482966.4969 1.170783 1.12978 2.043896 1.81978 2.786539.16764.829747.0771 1.212596.28434 2.160989.5782 1.734607 2.89917 5.154882 5.0044 7.961538.20643 2.155465.42058 4.315167 0 6.767307-6.06608 5.03276-21.69001 7.18708-21.66676 12.39725l-.34121 1.99039h61.19011l-.34121-1.99039c-.0249-4.4592-15.67506-7.18708-21.66676-12.39725-.24243-1.99446-.29383-4.00673-.1706-5.971154 1.91832-2.960363 4.53099-6.825656 5.175-8.757691.23145-.978363.27433-1.659782.45494-2.502198.57483-.696292 1.05513-1.447617 1.47857-2.44533 1.19041-2.804785 1.16515-5.508148-.11373-6.312362.0754-1.130089.0805-2.322203.11373-3.298351 0-8.056993-6.8925-14.558241-15.525-14.558241zm0 1.876648c7.68111 0 13.61558 5.650765 13.64836 12.624725.00009.01927 0 .03758 0 .05687-.0332 1.008007-.045 2.153726-.11374 3.184615a1.852839 1.852839 0 0 0 .85302 1.706044c.008.04295.16154.264583.17061.853022.012.784585-.22956 1.926743-.73929 3.127747-.3573.841845-.7134 1.407951-1.19423 1.990384a1.852839 1.852839 0 0 0 -.39808.796154c-.21093.98387-.25605 1.604622-.45494 2.44533-.22971.63689-.95665 1.977733-1.87665 3.468955-.94965 1.539278-2.04623 3.226563-3.01401 4.720055a1.852839 1.852839 0 0 0 -.34121.90989c-.13019 2.075458-.0292 4.200868.22747 6.312358a1.852839 1.852839 0 0 0 .62555 1.19423c3.47774 3.02413 8.9708 4.89448 13.59148 6.76731 2.31035.93642 4.37458 1.82891 5.74368 2.6728.68456.42195 1.17042.84656 1.42171 1.13737.25129.2908.22738.38196.22747.39807a1.852839 1.852839 0 0 0 .0569.11374h-56.86813a1.852839 1.852839 0 0 0 .0569-.11374c-.002-.37606.31646-1.00891 1.64918-1.87665s3.39033-1.77667 5.68681-2.6728c4.59296-1.79226 10.11374-3.49358 13.64835-6.4261a1.852839 1.852839 0 0 0 .62555-1.08049c.46893-2.73405.20604-5.127787 0-7.279122a1.852839 1.852839 0 0 0 -.34121-.966758c-1.03195-1.375783-2.1331-2.896393-3.01401-4.26511-.83714-1.300717-1.44071-2.402348-1.64918-2.957142-.009-.03913.007-.07674 0-.113737-.12794-.660001-.0806-.981891-.28434-1.990384a1.852839 1.852839 0 0 0 -.45494-.90989c-.58165-.626017-1.07328-1.319787-1.47857-2.274725-.53694-1.26513-.76887-2.494593-.73929-3.298352.0222-.602818.13295-.788609.11374-.796153a1.852839 1.852839 0 0 0 1.02362-1.819781c-.0728-.929425-.0374-2.081952-.0569-2.957142 0-.01929-.00009-.0376 0-.05687.0328-6.973958 5.96726-12.624725 13.64835-12.624725z" opacity=".1"/><path d="m136.27118 26.516001c-8.63249 0-15.52499 6.501248-15.52499 14.558241.006.249826.0443.609504.0569.90989.50475-7.624604 7.16796-13.648351 15.46813-13.648351 8.32089 0 14.99323 6.053529 15.46813 13.705219.0137-.317761.0471-.680407.0569-.966758-.00001-8.056993-6.89251-14.558241-15.52501-14.558241zm-15.46813 17.742856c-.91756.452572-1.23343 1.824879-1.02362 3.525824.14707-.856955.47793-1.507173 1.08049-1.762912-.0461-.588999-.0268-1.153362-.0569-1.762912zm30.93627.170604c-.0289.599714-.0166 1.158946-.0569 1.762912.51366.323013.78826.948623.90989 1.762912.21958-1.622474-.057-2.965135-.85303-3.525824zm-7.10852 23.259067c-.0276 1.48364.0457 2.99692.22747 4.49258 5.9917 5.21017 21.64188 7.93805 21.66676 12.39725l.0569.17061h.28434l-.34121-1.99039c-.0249-4.4592-15.67506-7.18708-21.66676-12.39725-.10757-.88498-.19482-1.78995-.22747-2.6728zm-16.7761.39807c-.0263.72898-.0374 1.4984-.1706 2.27473-6.06608 5.03276-21.69001 7.18708-21.66676 12.39725l-.34121 1.99039h.28434l.0569-.17061c-.0233-5.21017 15.60068-7.36448 21.66676-12.39725.24726-1.44162.23156-2.79206.1706-4.09451z" opacity=".2"/><path d="m120.80305 41.984132c-.0202.305277-.0569.599719-.0569.90989.009.374456.0336.892764.0569 1.364835.025-.01237.031-.04589.0569-.05687-.058-.740822-.0263-1.486648-.0569-2.217857zm30.93627.05687c-.0329.765458-.004 1.533015-.0569 2.331593.0228.01438.0348.04133.0569.05687.0252-.522417.0414-1.080985.0569-1.535439 0-.290832-.0391-.566478-.0569-.853022zm-31.95989 5.743679c-.21323 1.242468.0546 2.972778.79615 4.720055.4969 1.170782 1.12978 2.043895 1.81978 2.786538.16764.829747.0771 1.212596.28434 2.160989.5782 1.734607 2.89917 5.154882 5.0044 7.961538.0851.888267.12787 1.759837.1706 2.672797.0568-1.57359-.0295-3.019516-.1706-4.492577-2.10523-2.806656-4.4262-6.226931-5.0044-7.961538-.20719-.948393-.1167-1.331242-.28434-2.160989-.69-.742643-1.32288-1.615756-1.81978-2.786539-.42615-1.004083-.68508-1.9998-.79615-2.900274zm32.81291.170604c-.11527.851694-.3937 1.781409-.79616 2.72967-.42344.997713-.90374 1.749038-1.47857 2.44533-.18061.842416-.22349 1.523835-.45494 2.502198-.64401 1.932035-3.25668 5.797328-5.175 8.757691-.0685 1.092776-.0978 2.191524-.0569 3.298354.009-.49479.026-.98729.0569-1.47857 1.91832-2.960367 4.53099-6.82566 5.175-8.757695.23145-.978363.27433-1.659782.45494-2.502198.57483-.696291 1.05513-1.447617 1.47857-2.445329.71228-1.678244.97735-3.336378.79616-4.549451zm-46.63187 36.793683-.28434 1.81978h61.19011l-.28434-1.81978z" fill="#fefefe" opacity=".15"/></g></svg>