<svg enable-background="new 0 0 128 129.396" height="48" width="48" xmlns="http://www.w3.org/2000/svg" xmlns:xlink="http://www.w3.org/1999/xlink"><radialGradient id="a" cx="605.71429" cy="486.64789" gradientTransform="matrix(-2.774389 0 0 1.969706 112.7623 -872.8854)" gradientUnits="userSpaceOnUse" r="117.14286" xlink:href="#b"/><linearGradient id="b"><stop offset="0"/><stop offset="1" stop-opacity="0"/></linearGradient><radialGradient id="c" cx="605.71429" cy="486.64789" gradientTransform="matrix(2.774389 0 0 1.969706 -1891.633 -872.8854)" gradientUnits="userSpaceOnUse" r="117.14286" xlink:href="#b"/><linearGradient id="d" gradientTransform="matrix(2.774389 0 0 1.969706 -1892.179 -872.8854)" gradientUnits="userSpaceOnUse" x1="302.85715" x2="302.85715" y1="366.64789" y2="609.50507"><stop offset="0" stop-opacity="0"/><stop offset=".5"/><stop offset="1" stop-opacity="0"/></linearGradient><linearGradient id="e"><stop offset="0" stop-color="#fff"/><stop offset="1" stop-color="#fff" stop-opacity="0"/></linearGradient><linearGradient id="f" gradientTransform="matrix(.336922 0 0 .166888 17.98288 15.46151)" gradientUnits="userSpaceOnUse" x1="52.006104" x2="14.049017" y1="166.1331" y2="-42.218513"><stop offset="0" stop-color="#ccc"/><stop offset=".9831" stop-color="#fff"/></linearGradient><linearGradient id="g" gradientUnits="userSpaceOnUse" x1="24.43842902" x2="24.43842902" y1="22.9768248781" y2="12.511369469"><stop offset="0" stop-color="#fff"/><stop offset=".8539" stop-color="#ff6200"/><stop offset="1" stop-color="#f25d00"/></linearGradient><radialGradient id="h" cx="7.532664" cy="24.202574" gradientTransform="matrix(4.100086 0 0 4.201322 -25.41506 -78.53967)" gradientUnits="userSpaceOnUse" r="8.245213" xlink:href="#e"/><radialGradient id="i" cx="19.985598" cy="36.77816" gradientTransform="matrix(1.125263 0 0 .982744 -3.428678 .565787)" gradientUnits="userSpaceOnUse" r="1.082104"><stop offset="0" stop-color="#edd400"/><stop offset="1" stop-color="#980"/></radialGradient><radialGradient id="j" cx="20.443665" cy="37.425829" gradientTransform="matrix(1.125263 0 0 .982744 -3.428678 .731106)" gradientUnits="userSpaceOnUse" r="1.082104" xlink:href="#b"/><linearGradient id="k" gradientTransform="matrix(.898789 0 0 1.071914 .478025 -2.080838)" gradientUnits="userSpaceOnUse" x1="17.602522" x2="17.682528" y1="26.057423" y2="32.654099"><stop offset="0" stop-opacity=".185567"/><stop offset="1" stop-color="#fff"/></linearGradient><radialGradient id="l" cx="11.68129" cy="19.554111" gradientTransform="matrix(4.100086 0 0 -4.201322 -5.198109 105.3535)" gradientUnits="userSpaceOnUse" r="8.245213" xlink:href="#b"/><radialGradient id="m" cx="29.913452" cy="30.442923" gradientTransform="matrix(3.751495 0 0 3.147818 -82.00907 -65.70704)" gradientUnits="userSpaceOnUse" r="4.001883" xlink:href="#e"/><radialGradient id="n" cx="24.195112" cy="10.577631" gradientTransform="matrix(1.125263 -.00000004 .00000004 1.340059 -3.006704 1.355395)" gradientUnits="userSpaceOnUse" r="15.242914"><stop offset="0" stop-color="#575757"/><stop offset="1" stop-color="#575757" stop-opacity="0"/></radialGradient><linearGradient id="o" gradientTransform="matrix(.888785 0 0 1.08932 2.41099 -1.524336)" gradientUnits="userSpaceOnUse" x1="17.850183" x2="19.040216" y1="28.939463" y2="41.03223"><stop offset="0" stop-color="#7c7e79"/><stop offset=".1724138" stop-color="#848681"/><stop offset="1" stop-color="#898c86"/></linearGradient><g transform="matrix(.02158196 0 0 .01859457 43.12251 41.63767)"><path d="m-1559.2523-150.69685h1339.6335v478.35718h-1339.6335z" fill="url(#d)" opacity=".402062"/><path d="m-219.61876-150.68038v478.33079c142.874166.90045 345.40022-107.16966 345.40014-239.196175 0-132.026537-159.436816-239.134595-345.40014-239.134615z" fill="url(#c)" opacity=".402062"/><path d="m-1559.2523-150.68038v478.33079c-142.8742.90045-345.4002-107.16966-345.4002-239.196175 0-132.026537 159.4368-239.134595 345.4002-239.134615z" fill="url(#a)" opacity=".402062"/></g><path d="m21.619576 8.1833733h5.957459c.839732 0 13.886475 15.4353277 13.886475 16.3406587l-.443521 18.496745c0 .905333-.67603 1.634177-1.515762 1.634177h-31.4572774c-.8397329 0-1.5157625-.728844-1.5157625-1.634177l.056478-18.496745c0-.905331 14.1921789-16.3406587 15.0319109-16.3406587z" fill="url(#f)" stroke="#757575" stroke-width="1.000001"/><path d="m46.963575 45.735573h-45.3248988v-45.32489746h45.3248988z" fill="none"/><path clip-rule="evenodd" d="m23 29-.045744 15.090942h-11.842791l-.111465-15.090942z" fill="url(#k)" fill-rule="evenodd"/><path d="m21.780459 9.405584h5.559097c.783582 0 13.000869 14.399588 13.000869 15.244172l-.347158 18.212311c0 .459259-.143737.653465-.512375.653465l-31.3872026.01428c-.3686377 0-.5839636-.079918-.5839636-.45355l.2153418-18.426506c0-.844584 13.2718124-15.244172 14.0553914-15.244172z" fill="none" opacity=".3125" stroke="#fff"/><g clip-rule="evenodd" fill-rule="evenodd"><path d="m7.2075295 27.943053-.0542567 2.595194 18.3681642-13.179254 15.286395 11.154428.07131-.311714-16.370456-15.904131z" fill="url(#n)" opacity=".2"/><path d="m22 30v14.090942h-9.811029l-.188971-14.090942z" fill="url(#o)"/><path d="m19.576856 36.44767c.67279 0 1.216616.474605 1.216616 1.058507 0 .589811-.543826 1.068355-1.216616 1.068355-.672272 0-1.218686-.478544-1.218686-1.068355.000515-.583902.546414-1.058507 1.218686-1.058507z" fill="url(#j)" opacity=".409091"/><path d="m19.462314 35.932229c.672789 0 1.216615.474605 1.216615 1.058507 0 .589809-.543826 1.068353-1.216615 1.068353-.672273 0-1.218687-.478544-1.218687-1.068353.000515-.583902.546414-1.058507 1.218687-1.058507z" fill="url(#i)"/></g><path d="m24.447748 11.559337 18.92706 17.169868.494679.391991.403676-.171385-.37287-.761673-.277614-.223436-19.174931-15.572306-19.3895153 15.743335-.2376018.14412-.2167099.706786.4334198.129248.384554-.308423z" fill="url(#g)"/><path d="m24.330168 2.2713382-21.8817386 18.1013368-.6247289 7.165928 1.9999362 2.064323s20.4073813-17.157285 20.6240933-17.327963l19.63254 17.54326 1.898424-2.323997-1.615791-7.111374-19.915173-18.2159732z" fill="#ef2929" stroke="#a40000"/><path d="m2.8413446 20.613129-.2915552 6.623365 21.8194296-18.256419-.070328-5.8933307-21.4575464 17.5263847z" fill="url(#h)" opacity=".409091"/><path d="m24.483763 8.7509884.09946-5.8411017 19.328963 17.6519533 1.491812 6.500812-20.920235-18.3116636z" fill="url(#l)" opacity=".136364"/><path d="m27.102228 27.719824h9.039995c.770595 0 1.390967.62037 1.390967 1.390967l-.007961 9.079221c0 .770596-.596322 1.265969-1.366918 1.265969h-9.056083c-.770597 0-1.390967-.620373-1.390967-1.390969v-8.954221c0-.770597.62037-1.390967 1.390967-1.390967z" fill="none" opacity=".318182" stroke="#fff" stroke-width=".999999"/><rect fill="#3465a4" height="9.962456" rx=".381282" stroke="#757575" stroke-width=".999999" width="10.001333" x="26.507767" y="28.514256"/><path d="m27.107118 34.408261c3.617983.331177 5.527724-1.445704 8.868152-1.55274l.02473-3.849491-8.911612-.00603.01873 5.408261z" fill="url(#m)" opacity=".397727"/></svg>